<?xml version="1.0" encoding="UTF-8" standalone="no"?><!DOCTYPE svg PUBLIC "-//W3C//DTD SVG 1.1//EN" "http://www.w3.org/Graphics/SVG/1.1/DTD/svg11.dtd"><svg width="100%" height="100%" viewBox="0 0 267 267" version="1.1" xmlns="http://www.w3.org/2000/svg" xmlns:xlink="http://www.w3.org/1999/xlink" xml:space="preserve" xmlns:serif="http://www.serif.com/" style="fill-rule:evenodd;clip-rule:evenodd;stroke-linecap:round;stroke-miterlimit:1;"><g id="Layer3"><path d="M126.593,108.138c-3.09,-17.598 -9.409,-57.762 -7.277,-72.599c2.909,-20.247 21.146,-29.597 31.451,-28.246c28.156,3.692 24.401,35.247 19.592,51.48c-5.788,19.535 -17.961,39.801 -23.882,49.917c6.661,0.919 12.804,2.607 18.43,5.064c4.154,-16.86 12.604,-42.374 19.685,-51.38c11.379,-14.473 25.243,-21.201 34.902,-16.2c22.697,11.754 6.176,42.872 -8.665,56.768c-9.212,8.626 -20.161,16.172 -28.878,21.733c5.31,4.69 9.591,10.087 12.842,16.191c5.182,9.727 7.773,19.636 7.773,29.727c0,9.364 -2.682,15.432 -8.045,18.204c-5.364,2.773 -12.909,4.159 -22.637,4.159l-72.817,0c0.09,8.455 1.795,15.91 5.113,22.364c3.318,6.455 7.727,11.318 13.227,14.591c5.5,3.273 11.569,4.909 18.205,4.909c4.454,-0 8.523,-0.523 12.204,-1.568c3.682,-1.046 7.25,-2.682 10.705,-4.909c3.454,-2.228 6.636,-4.614 9.545,-7.159c2.909,-2.546 6.682,-6 11.318,-10.364c1.91,-1.636 4.637,-2.454 8.182,-2.454c3.818,-0 6.909,1.045 9.273,3.136c2.364,2.091 3.545,5.045 3.545,8.863c0,3.364 -1.318,7.296 -3.954,11.796c-2.637,4.5 -6.614,8.818 -11.932,12.954c-5.318,4.137 -12,7.569 -20.045,10.296c-8.046,2.727 -17.296,4.091 -27.75,4.091c-23.909,-0 -42.5,-6.818 -55.773,-20.455c-13.272,-13.636 -19.909,-32.136 -19.909,-55.5c0,-11 1.637,-21.204 4.909,-30.613c3.273,-9.409 8.046,-17.477 14.318,-24.205c6.273,-6.727 14,-11.886 23.182,-15.477c7.12,-2.784 14.841,-4.489 23.163,-5.114Zm-27.526,63.682l67.499,0c-0.909,-12.727 -4.341,-22.25 -10.295,-28.568c-5.955,-6.318 -13.796,-9.477 -23.523,-9.477c-9.272,-0 -16.886,3.204 -22.841,9.613c-5.954,6.41 -9.568,15.887 -10.84,28.432Z" style="fill:#47a4a4;fill-rule:nonzero;stroke:#30333d;stroke-width:2.17px;stroke-dasharray:12.99,6.5,0,0;"/><g><path d="M92.682,134.143l-0.054,-0.154l-27.331,21.313l-0.046,0.02l-13.883,-31.777c-1.687,1.526 -2.83,3.482 -3.363,5.59c-0.584,2.306 -0.44,4.794 0.515,7.093c4.226,10.177 10.125,25.527 10.291,25.964l9.937,1.136l0.002,-0.001l20.538,-16.782c3.611,-3.02 4.965,-7.965 3.394,-12.402Z" style="fill:#fff;fill-rule:nonzero;"/><path d="M77.481,165.826c-1.457,-0.368 -2.921,-0.396 -4.306,-0.132c-1.799,0.342 -3.611,-0.475 -4.336,-2.157l-0.091,-0.209l-2.002,-4.584c-1.06,-1.813 -3.463,-2.547 -5.434,-1.762l-0.171,0.11c-1.572,0.816 -2.611,2.539 -2.491,4.244l-0.349,-0.482l-0.038,0.014c-1.44,1.141 -3.431,0.996 -4.853,-0.168c-1.096,-0.897 -2.401,-1.574 -3.866,-1.945c-6.188,-1.566 -12.529,3.033 -12.437,9.978c0.061,4.507 3.173,8.257 7.543,9.363c7.293,1.845 10.766,-4.376 16.885,-8.768c3.995,10.359 5.832,14.023 9.755,15.447c4.889,1.775 10.552,-0.259 12.75,-4.973c2.736,-5.868 -0.587,-12.464 -6.559,-13.976Zm-31.744,7.972c-2.963,-0.75 -4.763,-3.77 -4.013,-6.732c0.75,-2.963 3.77,-4.763 6.732,-4.013c2.963,0.75 4.763,3.77 4.013,6.732c-0.75,2.963 -3.77,4.763 -6.732,4.013Zm27.936,7.071c-2.962,-0.75 -4.762,-3.77 -4.013,-6.732c0.75,-2.962 3.77,-4.762 6.733,-4.013c2.962,0.75 4.762,3.77 4.012,6.733c-0.75,2.962 -3.77,4.762 -6.732,4.012Z" style="fill:#ff6c6c;fill-rule:nonzero;"/><path d="M63.784,161.216c-0.593,-0.15 -1.196,0.21 -1.346,0.803c-0.15,0.593 0.209,1.196 0.802,1.346c0.594,0.151 1.197,-0.209 1.347,-0.802c0.15,-0.593 -0.209,-1.196 -0.803,-1.347Z" style="fill:#30333d;fill-rule:nonzero;"/><path d="M73.401,181.944c3.555,0.9 7.179,-1.261 8.079,-4.815c0.9,-3.555 -1.26,-7.179 -4.815,-8.079c-3.555,-0.9 -7.179,1.26 -8.079,4.815c-0.9,3.555 1.26,7.179 4.815,8.079Zm2.72,-10.745c2.37,0.6 3.81,3.016 3.21,5.386c-0.6,2.369 -3.016,3.81 -5.386,3.21c-2.37,-0.6 -3.81,-3.016 -3.21,-5.386c0.6,-2.37 3.016,-3.81 5.386,-3.21Z" style="fill:#30333d;fill-rule:nonzero;"/><path d="M48.728,161.979c-3.554,-0.9 -7.179,1.26 -8.079,4.815c-0.899,3.554 1.261,7.179 4.816,8.079c3.555,0.899 7.179,-1.261 8.078,-4.816c0.9,-3.555 -1.26,-7.178 -4.815,-8.078Zm-2.72,10.745c-2.369,-0.6 -3.809,-3.017 -3.21,-5.386c0.6,-2.37 3.016,-3.81 5.386,-3.21c2.37,0.6 3.81,3.016 3.21,5.385c-0.6,2.37 -3.015,3.81 -5.386,3.211Z" style="fill:#30333d;fill-rule:nonzero;"/><path d="M54.112,159.842c-1.261,-1.032 -2.707,-1.759 -4.296,-2.161c-2.598,-0.658 -5.345,-0.353 -7.732,0.86c-3.811,1.933 -6.143,5.844 -6.085,10.207c0.067,4.982 3.487,9.185 8.379,10.423c5.913,1.495 9.562,-1.798 13.425,-5.285c1.032,-0.931 2.09,-1.886 3.229,-2.788c3.887,9.976 5.872,13.766 11.006,15.065c5.23,1.324 10.78,-1.118 13.006,-5.893c1.654,-3.546 1.382,-7.594 -0.728,-10.828c-1.525,-2.339 -3.855,-4.005 -6.563,-4.69c-1.582,-0.4 -3.192,-0.45 -4.786,-0.147c-1.121,0.213 -2.197,-0.188 -2.809,-0.997l19.832,-16.205c0.003,-0.003 0.006,-0.006 0.01,-0.009c3.952,-3.305 5.46,-8.726 3.727,-13.621c-0.028,-0.048 -0.138,-0.658 -0.788,-0.848c-0.343,-0.1 -0.712,-0.029 -0.993,0.19l-26.245,20.467l-13.318,-30.48c-0.142,-0.327 -0.433,-0.564 -0.782,-0.64c-0.349,-0.075 -0.712,0.022 -0.976,0.261c-3.846,3.477 -5.159,9.042 -3.128,13.93c4.012,9.663 7.015,17.389 9.432,23.714c-0.897,0.346 -1.972,0.166 -2.817,-0.525Zm2.206,12.399c-3.706,3.344 -6.633,5.986 -11.396,4.781c-3.958,-1.002 -6.653,-4.339 -6.706,-8.304c-0.047,-3.511 1.82,-6.653 4.871,-8.201c1.91,-0.969 4.106,-1.213 6.185,-0.687c1.272,0.322 2.429,0.903 3.436,1.728c1.478,1.209 3.387,1.51 5.011,0.883c1.571,4.128 2.002,5.26 2.478,6.499c-1.404,1.068 -2.66,2.2 -3.879,3.301Zm17.063,-5.459c1.274,-0.242 2.561,-0.202 3.828,0.119c2.166,0.548 4.03,1.88 5.25,3.751c1.688,2.589 1.904,5.834 0.577,8.681c-1.778,3.811 -6.235,5.749 -10.45,4.682c-4.169,-1.055 -5.789,-4.124 -10.017,-15.086l-0.001,-0.001c-0.694,-1.796 -1.517,-3.965 -2.703,-7.082c-0.405,-1.305 0.285,-2.882 1.61,-3.672c0.097,-0.058 0.189,-0.128 0.226,-0.154c1.476,-0.6 3.275,-0.049 4.063,1.246c0.162,0.371 -0.668,-1.529 2.058,4.709c0.906,2.104 3.192,3.258 5.559,2.807Zm18.633,-30.909c0.73,3.606 -0.56,7.413 -3.431,9.817l-19.404,15.855l-2.563,-5.866l25.398,-19.806Zm-40.993,-10.354l13.183,30.176c-1.509,-0.335 -3.029,-0.014 -3.88,0.585c-0.781,0.469 -1.42,1.1 -1.889,1.819c-2.323,-6.057 -5.175,-13.347 -8.891,-22.296c-1.482,-3.569 -0.772,-7.501 1.477,-10.284Z" style="fill:#30333d;fill-rule:nonzero;"/><path d="M64.831,165.343c-0.569,0.225 -0.848,0.869 -0.622,1.438l1.449,3.657c0.225,0.567 0.87,0.847 1.439,0.621c0.569,-0.225 0.848,-0.869 0.622,-1.438l-1.449,-3.656c-0.226,-0.569 -0.87,-0.848 -1.439,-0.622Z" style="fill:#30333d;fill-rule:nonzero;"/></g></g></svg>